<?xml version="1.0" encoding="UTF-8" standalone="no"?>
<!-- Created with Inkscape (http://www.inkscape.org/) -->

<svg
   width="72.054001mm"
   height="274.302mm"
   viewBox="0 0 72.054002 274.302"
   version="1.1"
   id="svg5"
   xml:space="preserve"
   inkscape:version="1.2 (dc2aedaf03, 2022-05-15)"
   sodipodi:docname="crest mainline.svg"
   xmlns:inkscape="http://www.inkscape.org/namespaces/inkscape"
   xmlns:sodipodi="http://sodipodi.sourceforge.net/DTD/sodipodi-0.dtd"
   xmlns="http://www.w3.org/2000/svg"
   xmlns:svg="http://www.w3.org/2000/svg"><sodipodi:namedview
     id="namedview7"
     pagecolor="#ffffff"
     bordercolor="#000000"
     borderopacity="0.25"
     inkscape:showpageshadow="2"
     inkscape:pageopacity="0.0"
     inkscape:pagecheckerboard="0"
     inkscape:deskcolor="#d1d1d1"
     inkscape:document-units="mm"
     showgrid="false"
     showguides="true"
     inkscape:zoom="0.52221046"
     inkscape:cx="96.704306"
     inkscape:cy="388.73216"
     inkscape:window-width="1920"
     inkscape:window-height="1009"
     inkscape:window-x="-8"
     inkscape:window-y="-8"
     inkscape:window-maximized="1"
     inkscape:current-layer="layer1" /><defs
     id="defs2" /><g
     inkscape:label="Calque 1"
     inkscape:groupmode="layer"
     id="layer1"
     transform="translate(-96.138672,7.3242166)"><path
       id="path356"
       style="fill:none;fill-opacity:1;stroke:#ff0000;stroke-width:0.25;stroke-linejoin:round;stroke-miterlimit:0;stroke-dasharray:none"
       d="m 98.38034,-5.7248697 c 0.06394,1.0318684 -0.08304,2.1090922 0.111513,3.1128756 0.615891,0.8500016 1.537457,1.4844134 2.270127,2.25205734 5.51267,5.19826496 11.0345,10.38870876 16.62229,15.50452376 5.12069,4.901835 10.18985,9.866517 15.203,14.860431 1.55035,1.504045 2.95105,3.144915 4.35982,4.77769 3.90857,4.289586 8.04771,8.372015 11.81196,12.79092 0.38645,0.459891 -0.50688,-0.167211 -0.70511,-0.30338 -2.19895,-1.839025 -4.32782,-3.776025 -6.26313,-5.891888 -4.51465,-4.072376 -9.31713,-7.813368 -14.04685,-11.631034 -7.96139,-6.363766 -15.98269,-12.649402 -24.01986,-18.915555 -0.70079,0.14648 -1.03652,0.551259 -0.92242,1.274312 -0.0478,0.738963 -0.28955,1.608044 0.40701,2.131213 6.14702,7.379323 12.36446,14.700303 18.41139,22.161745 2.45807,2.978301 5.17564,5.733896 7.75103,8.610732 2.20249,2.406139 4.43715,4.785949 6.50156,7.311813 5.23666,5.890105 10.58349,11.680109 15.92174,17.478936 0.2288,0.192962 0.42529,1.284301 -0.0547,0.839843 -2.0544,-1.682628 -3.8801,-3.628569 -6.00039,-5.232904 -4.83037,-4.017107 -9.49358,-8.236208 -14.48559,-12.056608 -3.63773,-2.953266 -7.67108,-5.353018 -11.59581,-7.894114 -2.6763,-1.621697 -5.27061,-3.432336 -8.16245,-4.655312 -1.86488,-0.659516 -3.83568,-1.299536 -5.83627,-1.155272 -2.00761,0.298443 -3.20063,2.368031 -3.34254,4.244667 -0.12994,2.335708 0.0507,4.711355 0.82704,6.932167 0.51857,1.9013 1.11679,3.802693 2.19723,5.46922 1.06445,1.986722 2.16788,3.958874 3.14096,5.990734 -1.09127,-0.988391 -3.05524,-0.664149 -3.61593,0.749086 -0.5083,1.294724 -0.28223,2.760259 -0.0364,4.092711 0.56041,2.15384 1.35371,4.248779 2.53691,6.141766 0.94845,1.755779 2.03494,3.44371 2.88106,5.250812 -1.01936,-0.354079 -2.13696,-1.103711 -3.2168,-0.470703 -1.78053,0.924708 -2.20764,3.347926 -1.52871,5.102606 0.87925,2.929163 1.66019,5.914794 3.10499,8.630853 1.15537,2.507326 2.48565,4.946009 3.45497,7.532166 0.0809,0.669984 -0.80227,-0.198486 -1.0907,-0.26789 -1.21854,-0.766929 -2.79043,-1.701432 -4.22127,-0.90861 -1.25683,0.629246 -1.22697,2.22052 -0.91998,3.39321 0.62904,2.71876 1.82466,5.26494 2.82156,7.86153 1.11067,2.77535 2.22207,5.56274 3.78547,8.1221 1.8561,3.24075 3.78394,6.44323 5.74797,9.61803 -1.42306,-0.3434 -2.27111,-1.66451 -3.33664,-2.56065 -2.4838,-2.44599 -4.85952,-5.00121 -7.47977,-7.30459 -0.71235,0.16499 -1.07123,0.55416 -0.87044,1.29829 0.0652,1.12289 -0.0503,2.27545 0.13216,3.37945 0.53403,1.03965 1.65845,1.59329 2.34572,2.52428 1.56298,1.7777 3.23604,3.46578 4.70454,5.32059 1.29538,2.00671 2.73085,3.99271 3.32669,6.34458 0.23016,0.36452 0.1268,1.26992 -0.37462,0.65509 -1.98312,-1.82128 -3.59645,-4.02464 -5.77742,-5.63142 -0.93537,-0.9319 -2.60194,-1.27349 -3.721,-0.49633 -1.48961,1.5325 -1.58333,3.91688 -1.12013,5.89601 0.52228,2.34655 1.10525,4.64804 1.73962,6.95448 0.74259,2.45679 1.76826,4.81555 2.71449,7.19443 0.20103,0.48362 -0.24997,0.82692 -0.70508,0.69727 -1.90207,-0.20912 -3.98526,0.90073 -4.45898,2.8418 -0.39953,1.69511 0.001,3.45323 0.17136,5.15639 0.32862,2.38706 1.55972,4.51366 2.34667,6.76379 1.07114,2.40378 2.33298,4.71947 3.55619,7.04466 0.36623,0.65307 -0.38101,0.23891 -0.69922,0.11914 -1.47193,-0.52347 -3.27907,-1.08024 -4.70508,-0.14648 -0.97938,0.49545 -1.31687,1.62534 -1.20504,2.65256 0.16723,3.83979 2.15195,7.24503 3.79485,10.61543 2.80152,5.52511 5.70087,11.00252 8.45902,16.54841 0.0824,0.25948 0.62156,1.33114 0.13265,0.82733 -3.5373,-3.1929 -6.96818,-6.50255 -10.4471,-9.75897 -0.71482,0.13317 -1.08244,0.5128 -0.93454,1.2584 0.009,1.07083 -0.21908,2.16887 -0.0617,3.2232 0.57004,1.62671 1.94112,2.77445 2.93529,4.13602 1.51123,1.87805 3.10536,3.68932 4.6693,5.51989 1.00872,1.43799 2.0584,2.89035 2.76577,4.5019 0.31238,0.77015 -0.19733,0.45449 -0.62214,0.095 -2.24031,-1.53451 -4.21805,-3.47123 -6.63993,-4.72652 -1.43597,-0.55493 -3.26389,0.44253 -3.61593,1.94722 -0.74921,2.39247 0.0105,4.87674 0.28549,7.28148 0.39126,2.83488 1.03309,5.62311 1.79098,8.38012 0.19474,0.84751 0.43996,1.6849 0.5915,2.54153 -1.25914,1.15305 -2.22709,2.78262 -2.05299,4.54725 0.0956,8.61954 0.37695,17.23994 0.90511,25.8438 0.0958,0.83386 -0.0859,1.89788 0.80312,2.36411 1.233,0.97501 2.38978,2.09086 3.75296,2.8757 0.65823,0.24915 1.37687,-0.35835 1.17059,-1.05402 -0.29649,-8.70972 -0.69082,-17.419 -0.76069,-26.13423 -0.0972,-0.70199 0.0905,-1.21318 0.49455,-0.36412 1.39323,2.61147 2.91704,5.22634 5.15032,7.2182 1.34938,1.19398 2.75137,2.6001 4.59562,2.9162 1.60866,0.014 2.46678,-1.88581 2.218,-3.29258 -0.37799,-2.89482 -1.41581,-5.73726 -3.24471,-8.03698 -1.48966,-1.91184 -3.06257,-3.81941 -5.00844,-5.28373 -1.61194,-1.1014 -3.52103,-1.62736 -5.23047,-2.5332 -0.87635,-3.62399 -1.8236,-7.23955 -2.14063,-10.97656 -0.0535,-0.98157 -0.28401,-2.01696 -0.125,-2.97461 1.09461,-0.22093 1.81049,0.89535 2.61865,1.43485 2.64981,2.18585 4.98825,4.72795 7.66111,6.88238 0.86924,0.71382 2.5897,0.73921 2.97074,-0.51093 0.54325,-2.57379 -0.76281,-5.06645 -2.08839,-7.18521 -0.78538,-1.16073 -1.44397,-2.44648 -1.70703,-3.83203 1.10743,-0.0174 2.2998,0.86633 3.32402,0.13589 0.95877,-0.51479 1.34933,-1.66589 1.05293,-2.68667 -0.7136,-3.00456 -2.38656,-5.64502 -3.72972,-8.39208 -2.36264,-4.63477 -4.98709,-9.13791 -7.09123,-13.90115 -0.84267,-1.97124 -1.86918,-3.90517 -2.3353,-6.00755 -0.0728,-0.40394 0.1548,-0.80783 0.60201,-0.49622 1.45344,0.54982 2.30019,1.98182 3.3897,3.00952 2.16613,2.26385 4.56209,4.29505 6.75048,6.53553 0.80662,0.16481 0.9033,-1.0309 1.26792,-0.51099 0.36246,0.43367 1.07998,0.71364 0.87969,1.37453 0.002,2.17378 2.30651,3.91573 4.39851,3.3344 2.16029,-0.44448 3.40334,-3.11804 2.34703,-5.05365 -0.90863,-1.99243 -3.76003,-2.61801 -5.41463,-1.18335 -0.72136,-0.67123 -1.44271,-1.34245 -2.16407,-2.01368 0.26323,-1.03915 -0.78199,-1.70477 -1.2352,-2.51533 -1.6541,-2.30262 -3.43608,-4.58187 -4.60061,-7.15352 -2.2606,-4.60925 -4.45459,-9.33781 -6.28604,-14.16416 -0.31006,-1.05007 -0.8478,-2.23393 -0.41525,-3.31152 0.74806,-0.4328 1.7148,-0.10536 2.51757,0.0527 1.66667,0.47132 3.38025,1.36279 4.09571,3.03906 2.68003,4.62777 5.21345,9.35657 8.07632,13.88051 2.92553,4.34823 6.16767,8.60575 10.3514,11.82194 1.34243,0.96687 2.96539,2.12853 4.70704,1.54755 1.13238,-0.29552 1.21785,-1.61675 1.08008,-2.57422 -0.43974,-3.16548 -2.26768,-5.89371 -3.87305,-8.58008 -3.62909,-5.6673 -7.63832,-11.09537 -11.97065,-16.24429 -2.35381,-2.64885 -5.04306,-5.20353 -8.39802,-6.50248 -0.77271,-0.27463 -0.9191,-1.27312 -1.23265,-1.94292 -1.72628,-4.64317 -3.49422,-9.21707 -4.90017,-13.9575 -0.12067,-0.49628 -0.35641,-1.26384 0.11478,-1.61453 0.79772,0.018 1.34071,0.77028 1.98352,1.16489 1.9966,1.69022 3.70614,3.6861 5.6254,5.4551 0.92648,0.70519 1.8271,1.59915 2.99068,1.86244 1.4865,0.10022 2.45899,-1.6404 1.92816,-2.94356 -0.66521,-2.53339 -1.71214,-4.9447 -2.87347,-7.28496 -0.0987,-0.35913 -0.5597,-1.08482 -0.39349,-1.25525 0.95637,0.40444 2.18303,0.87012 3.06927,0.0521 1.19874,-1.18071 0.84024,-3.08582 0.17684,-4.45178 -2.0097,-4.01836 -4.52286,-7.76814 -6.50653,-11.80059 -1.96598,-4.3301 -3.88977,-8.68769 -5.55678,-13.14215 -0.0166,-0.26776 -0.42632,-1.03819 0.0392,-1.04021 1.02171,0.10017 1.57995,1.14672 2.25774,1.80199 1.35228,1.57249 2.87405,2.98711 4.20341,4.58288 1.24392,1.32128 2.35264,2.81076 3.81389,3.90142 0.59992,0.31414 0.85479,-1.08705 1.14897,-0.37504 0.43568,0.54235 1.09939,0.95676 1.09213,1.71372 0.4703,2.13926 3.12898,3.34819 5.05041,2.30108 1.97166,-0.90046 2.61954,-3.70225 1.23583,-5.37267 -1.19424,-1.66406 -3.85169,-1.86719 -5.28711,-0.40967 -0.722,-0.79297 -1.44401,-1.58594 -2.16601,-2.37891 0.0205,-0.64609 -0.0217,-1.31002 -0.53687,-1.77551 -2.03644,-2.86667 -4.22159,-5.64585 -6.00806,-8.679571 -1.96248,-4.100329 -3.7745,-8.388191 -5.2246,-12.634766 -0.18092,-0.69448 -0.50204,-1.413804 -0.48438,-2.125 0.66246,-0.367167 1.34189,0.354371 1.89408,0.662037 1.76139,1.428813 3.439,2.960103 5.26457,4.307001 1.37472,1.168709 2.72472,2.366143 4.07573,3.562212 0.70965,-0.147037 1.06489,-0.53759 0.91342,-1.27629 -0.0116,-1.047199 0.18609,-2.129337 0.0417,-3.154374 -0.069,-0.516684 -1.08832,-0.729046 -0.65773,-1.279963 0.80216,-1.746696 1.09818,-3.690249 0.85428,-5.596685 -0.17556,-2.642291 -0.62705,-5.32689 -1.96659,-7.651874 -1.41905,-2.776261 -2.97104,-5.512562 -4.97357,-7.913239 -2.55365,-3.843459 -4.96878,-7.787686 -7.15082,-11.854184 -0.88589,-1.97564 -1.07834,-4.239226 -0.77559,-6.369094 0.0531,-0.947635 1.11857,-1.106645 1.85844,-0.917373 3.55291,0.599264 6.61939,2.677938 9.56853,4.569511 6.49553,4.174103 12.50441,9.042143 18.61053,13.753544 4.78456,3.799189 9.62699,7.53229 14.27757,11.49514 4.58195,4.196772 8.90158,8.681309 13.61538,12.732895 0.46002,0.356713 1.19921,1.102573 1.71799,0.422924 0.45187,-1.144835 0.21337,-2.439396 0.17835,-3.642725 -0.15943,-1.311121 -0.11172,-2.831533 -1.16509,-3.800557 -10.12741,-12.377284 -20.42124,-24.618647 -30.63896,-36.92309 -1.92888,-2.318739 -3.86515,-4.632899 -5.78446,-6.953941 10.03373,8.474076 20.16594,16.836193 30.03501,25.503958 0.87347,0.741093 1.67428,1.589414 2.55008,2.310405 0.7536,0.315361 1.04505,-0.654 0.99898,-1.232764 0.0466,-1.604749 -0.0369,-3.226769 -0.21876,-4.815113 -0.8001,-1.218481 -1.85763,-2.284467 -2.75633,-3.444538 -4.08298,-4.921093 -8.11868,-9.882897 -12.13689,-14.855238 -7.07542,-7.807583 -14.46448,-15.326312 -21.88184,-22.808294 -7.65833,-7.626364 -15.34588,-15.2456918 -23.5503,-22.2887331 -0.753,-0.6482766 -1.52414,-1.2746415 -2.293866,-1.9028463 -0.288411,0.1386719 -0.576823,0.2773438 -0.865234,0.4160157 z M 109.8198,67.40599 c 1.89857,0.52763 3.32851,2.04215 4.62838,3.449697 1.3503,1.698398 2.53642,3.570565 3.33061,5.595225 0.45478,1.563003 0.79257,3.359285 0.82651,4.978893 -0.0279,0.724556 0.0137,1.525572 -0.27182,2.183217 -0.74477,-0.173369 -1.03696,-1.071415 -1.5519,-1.574154 -1.99898,-2.509666 -3.97872,-5.046483 -5.71685,-7.745349 -0.96662,-1.910869 -1.72415,-3.983879 -1.94467,-6.122739 -0.0704,-0.382895 0.0251,-0.826773 0.51373,-0.758304 0.0613,-0.01296 0.12397,-0.005 0.18601,-0.0065 z m 11.11133,96.13087 c 1.44761,0.4299 2.37266,1.7635 3.475,2.71242 3.37304,3.63577 6.0199,7.90695 8.88353,11.97244 1.08117,1.75007 2.06024,3.61632 2.56725,5.61787 0.28428,0.83665 -0.3939,0.36543 -0.7393,0.0776 -2.04491,-1.58971 -3.62306,-3.68148 -5.34366,-5.5986 -2.20913,-2.47415 -4.12297,-5.18741 -5.8643,-8.0063 -0.9472,-1.60367 -2.06878,-3.12513 -2.78516,-4.85157 -0.15543,-0.51153 -0.49405,-1.30302 -0.35937,-1.93164 l 0.0999,0.005 z m -6.67383,70.875 c 2.13571,0.4554 3.70743,2.1795 5.06446,3.77734 0.98387,1.20557 1.82913,2.56091 2.09961,4.11719 0.0733,0.36968 0.18229,0.9875 0.082,1.45507 -1.75297,-0.95798 -3.0168,-2.57619 -4.3716,-4.00462 -1.27382,-1.51792 -2.51043,-3.07237 -3.01843,-5.04178 0.0175,-0.13283 -0.12244,-0.42238 0.14393,-0.3032 z" /><path
       id="path8464"
       style="fill:none;fill-opacity:1;stroke:#ff0000;stroke-width:0.25;stroke-linejoin:round;stroke-miterlimit:0;stroke-dasharray:none"
       d="m 78.404852,87.749649 c -0.0144,-1.70122 -0.27869,-4.12851 -0.62322,-4.55683 -7.34686,-9.13407 -41.83639,-50.23847 -40.64662,-49.04868 1.18979,1.18978 33.20165,27.69478 36.88406,31.52882 0.64496,0.67159 0.11886,-5.41362 0.11886,-5.41362 0,0 -11.2434,-13.56334 -14.09889,-17.25166 C 57.617892,39.880349 26.129872,6.8378397 11.67404,-4.7625303 l 0.0305,2.93057 c 0,0 14.751802,13.9153893 16.536452,15.4621093 1.7847,1.54671 8.18058,7.78266 9.48935,9.09143 1.30877,1.30876 9.75606,9.39903 11.18381,11.30267 1.42775,1.90366 13.32607,13.92104 13.56403,14.99185 0.23795,1.07079 -1.54709,-5.5e-4 -2.14199,-0.47646 -0.59489,-0.47591 -4.57002,-3.978 -5.47305,-5.11545 -2.34721,-2.95651 -38.69996,-31.20584 -38.69996,-31.20584 l -0.16795,2.18694 c 0,0 18.34067,21.87422 18.92959,22.79964 0.58892,0.92543 12.45113,13.54553 13.04003,14.47095 0.5889,0.92544 16.23745,17.96397 16.82637,18.55288 0.5889,0.58892 0.70797,1.4801 0.28732,1.98489 -0.42065,0.50478 -1.31854,-0.63076 -1.81746,-0.98599 -0.73764,-0.52519 -3.26541,-3.06254 -4.10673,-3.65145 -0.8413,-0.58891 -8.36319,-7.0499 -9.17411,-7.75922 -1.50591,-1.31722 -8.29023,-6.7608 -10.22522,-8.02277 -1.93502,-1.26194 -12.19197,-8.04859 -15.13654,-9.31054 -1.59411,-0.68322 -4.31475,-1.47805 -5.99424,-1.36856 -1.32926,0.22183 -2.29472,0.97154 -2.92357,3.07233 -0.22761,0.76034 -0.16538,4.39992 0.25529,5.83014 0.42058,1.43021 1.20136,4.56817 1.95855,5.83012 0.75717,1.26195 3.29029,6.07503 3.62681,6.74806 0.33647,0.67305 0.46043,1.31139 0.12384,1.47965 -0.33651,0.16825 -0.87413,-0.87414 -1.96783,-0.87414 -1.0937,0 -1.56444,0.80686 -1.73271,1.39578 -0.16826,0.5889 -0.11285,2.42527 0.13952,3.3507 0.2524,0.92544 0.83529,2.90927 1.42421,4.08709 0.5889,1.17782 3.27871,5.78877 3.78581,6.81457 0.4648,0.94031 0.24355,0.98051 -0.093,1.14877 -0.33652,0.16825 -1.1684,-0.39151 -2.0097,-0.64389 -0.84132,-0.2524 -1.68257,0.33714 -2.10323,0.92604 -0.4207,0.58892 -0.84192,2.01826 -0.5054,3.11196 0.33653,1.09369 1.60908,5.5903 2.24844,7.0037 1.16937,2.58516 4.41808,9.04637 4.50217,9.803541 0.0841,0.75718 -0.23281,1.04944 -0.78815,0.85344 -0.71511,-0.25239 -2.15357,-1.333411 -2.96243,-1.564841 -0.84416,-0.24153 -1.5694,-0.27893 -2.24245,0.3941 -0.67304,0.673031 -0.42064,1.934641 0,3.533131 0.42066,1.59846 3.44919,9.08664 4.54287,11.52642 1.09363,2.43977 6.98344,12.11481 7.31997,12.57753 0.33652,0.46272 0.33641,0.79924 0.33641,1.05162 0,0.2524 -0.96787,0.0839 -1.80919,-0.37879 -0.8413,-0.46273 -6.43726,-6.2336 -6.9463,-6.74804 -0.55724,-0.56316 -3.02939,-2.82221 -3.02939,-2.82221 l 0.0735,3.99694 c 0,0 0.11525,0.3666 0.44752,0.66715 0.2298,0.20785 0.39562,0.35542 0.91571,0.82579 0.31198,0.28217 1.85051,1.97724 2.4815,2.69234 0.63098,0.71512 2.44015,2.6919 2.86081,3.1967 0.42064,0.50478 2.20863,3.36011 2.70474,4.28088 0.40278,0.74753 0.82606,2.00837 1.01803,2.6603 0.28214,0.95817 0.19997,1.3996 -0.54725,1.59887 -0.3155,0.0841 -0.81981,-0.54767 -1.4087,-1.09451 -0.58891,-0.54685 -1.80871,-1.87132 -2.79725,-2.944 -0.71949,-0.78071 -1.89211,-1.66537 -2.66547,-2.31976 -0.51379,-0.43475 -1.99306,-0.65419 -2.58796,-0.17828 -0.59489,0.47593 -1.21904,1.84414 -1.21904,3.50986 0,1.6657 1.0157,4.93903 1.57613,7.37681 0.5949,2.5878 2.46552,7.05222 2.68252,7.53804 0.24193,0.5416 0.61484,1.25442 0.44132,1.81178 -0.25503,0.81919 -1.02464,0.64389 -1.7818,0.64389 -0.75717,0 -1.66226,0.31515 -2.22312,0.72347 -0.76228,0.55495 -1.22695,1.5478 -1.31104,2.47323 -0.0841,0.92543 0.25267,4.37483 0.58912,5.55263 0.33651,1.17784 1.68754,4.26163 1.93993,5.01882 0.2524,0.75717 2.51882,5.24565 3.02359,6.08697 0.50479,0.84124 0.98488,1.75722 0.72863,2.19211 -0.29744,0.50479 -1.40114,-0.1728 -1.99006,-0.34106 -0.58884,-0.16826 -1.02999,-0.31641 -1.95543,-0.4005 -0.92544,-0.0841 -1.51087,0.13898 -2.26806,0.81203 -0.75718,0.67305 -0.34615,2.65581 -0.27216,3.3586 0.0752,0.71488 0.52234,2.06706 0.93877,3.25683 0.41642,1.1898 2.4987,5.29506 2.85564,6.00893 0.35694,0.71388 7.59186,14.76484 7.82983,15.24076 0.23796,0.47591 1.02268,2.05406 0.90365,2.76793 -0.11902,0.71388 -0.94064,-0.28106 -1.47605,-0.6976 -0.53541,-0.41643 -10.1725,-9.51828 -10.1725,-9.51828 l -0.1788,3.80752 c 0,0 0.29788,0.83259 0.59531,1.24902 0.29745,0.41643 5.28389,6.54376 6.29522,7.55509 1.01128,1.01132 3.1044,4.4621 3.40186,5.11649 0.2974,0.65439 0.416,1.84381 -0.11937,1.84381 -1.62841,-1.02424 -3.01999,-2.17481 -4.55063,-3.33106 -0.93502,-0.74211 -3.00436,-2.26085 -3.59926,-2.26085 -0.5949,0 -1.3683,0.1787 -1.96319,0.7736 -0.5949,0.59489 -0.8325,2.14191 -0.8325,3.21272 0,1.0708 1.07153,8.00639 1.48862,9.59153 0.32362,1.22988 1.52968,5.87539 1.52968,6.23231 0,0.35694 -0.4608,0.59464 -0.99621,1.24902 -0.53541,0.65439 -1.07214,1.71621 -1.07073,2.67736 0.0144,9.77521 0.83277,27.78153 1.07073,28.01948 0.23795,0.23795 3.62889,3.03376 3.98581,3.15278 0.35694,0.11889 0.53536,-0.11937 0.53536,-0.11937 0,0 -1.05068,-27.00546 -0.71416,-27.76265 0.33653,-0.75717 1.1781,-1.3e-4 1.51463,0.75706 0.33652,0.75717 2.20107,3.85418 2.95139,4.77748 1.41868,1.74573 3.13363,3.18236 3.80668,3.68714 0.67305,0.5048 1.99166,1.37901 2.74885,1.21076 0.75718,-0.16827 1.14021,-0.90456 1.34617,-1.59836 0.27194,-0.91609 -0.36093,-3.60489 -1.17823,-5.63738 -0.93496,-2.32514 -3.68071,-5.61527 -5.97327,-7.73958 -1.96411,-1.81994 -6.09133,-2.79864 -6.25958,-3.38756 -0.16827,-0.5889 -1.49257,-6.13043 -1.74497,-7.72891 -0.2524,-1.59848 -0.70212,-5.40526 -0.61715,-6.38272 0.0748,-0.8615 1.1523,-0.70707 1.71307,-0.46043 0.48705,0.21422 2.78628,2.22754 3.54346,2.90059 0.75718,0.67304 4.87938,4.62689 5.80481,5.29994 0.92544,0.67305 1.74949,0.54838 2.12442,0.12661 0.33653,-0.37858 0.33653,-1.76742 0,-3.11351 -0.33651,-1.34609 -1.36683,-3.15483 -2.20814,-4.41678 -0.84129,-1.26197 -1.68332,-3.5332 -1.43092,-3.95377 0.25238,-0.42071 1.26244,-0.0844 2.10375,0.0837 0.84131,0.16827 0.96747,0.39947 1.89291,-0.44183 0.92545,-0.84131 0.12613,-2.50278 -0.29456,-3.84887 -0.42065,-1.34607 -6.64524,-13.06205 -7.73894,-15.06132 -0.96697,-1.90428 -4.78071,-9.82096 -4.78071,-11.2487 0,-1.42775 0.86798,-1.19748 1.63711,-0.8754 1.11919,0.46867 2.28908,2.06533 3.9548,3.73104 1.66563,1.6657 5.7109,5.3537 6.06785,5.82962 0.0561,-0.29933 0.16006,-1.33723 0.17686,-1.55093 l 2.151,2.04823 c -0.0188,0.1351 -0.0443,0.46132 -0.0447,0.59772 1.7e-4,1.67601 1.35895,3.03456 3.03496,3.03444 1.6758,-1.7e-4 3.03427,-1.35864 3.03444,-3.03444 1.1e-4,-1.676 -1.35844,-3.03478 -3.03444,-3.03495 -0.8483,6e-5 -1.65785,0.35518 -2.23242,0.97927 l -2.70916,-2.52237 c 0.0295,-0.28912 0.0372,-0.45877 0.0695,-0.79991 0,0 -2.82524,-3.80738 -4.25298,-5.94899 -1.42774,-2.14162 -6.30603,-12.73123 -7.85275,-17.01447 -1.54671,-4.2832 0.0827,-4.27396 0.56483,-4.31291 0.95445,-0.077 2.33523,0.22309 3.48041,0.74362 1.10451,0.50209 2.02251,1.07078 2.61741,2.02262 0.59489,0.95182 6.55669,11.63585 8.18348,14.13453 5.04531,7.74953 9.8903,12.29768 12.8757,13.58729 0.69081,0.29839 2.097,0.31211 2.49855,-0.35709 0.30609,-0.51011 0.24611,-2.32156 -0.62834,-4.3418 -1.76594,-4.53013 -9.00644,-14.62756 -14.30666,-21.02151 -5.30018,-6.39386 -9.24388,-7.23986 -9.24388,-7.23986 0,0 -0.50425,-0.50488 -0.84078,-1.34618 -0.33652,-0.8413 -5.35174,-14.13467 -5.38468,-15.64865 -0.021,-0.96747 0.25247,-1.42989 0.92552,-1.42989 0.67304,0 1.1776,0.58868 1.93477,1.09347 0.75718,0.50478 4.39688,4.15004 5.03018,4.87051 0.57405,0.65307 2.8874,2.4945 3.51521,2.5337 0.83452,0.0521 1.52944,-0.67401 1.52944,-1.59939 0,-0.92544 -1.57736,-5.13175 -2.16627,-6.22546 -0.58892,-1.0937 -1.76682,-3.70173 -1.34617,-3.78582 0.42064,-0.0841 1.43059,0.42084 2.01951,0.58911 0.58893,0.16825 1.42977,-8e-5 1.7663,-0.92552 0.33652,-0.92544 0.25189,-1.76712 -0.42116,-3.28145 -0.67304,-1.51435 -4.79491,-8.41258 -5.97276,-10.68411 -1.17783,-2.27149 -5.79773,-13.05716 -6.15467,-14.4849 -0.35694,-1.42773 0.18938,-1.61199 1.1188,-1.40663 0.95183,0.21034 2.70935,2.70866 3.59823,3.49952 1.20416,1.07141 5.81391,6.70335 6.52777,6.82233 0.0243,-0.2643 -0.0208,-1.41379 0.006,-1.61862 l 2.30088,2.54879 c 0.0301,1.65945 1.38351,2.98918 3.04323,2.99 1.68188,3e-5 3.04532,-1.36341 3.04529,-3.04529 3e-5,-1.68188 -1.36341,-3.04532 -3.04529,-3.04529 -0.97021,6.5e-4 -1.88205,0.46357 -2.45515,1.24643 l -2.69473,-2.95978 c -0.004,-1.08856 -0.0392,-0.42949 -0.0231,-1.10509 0,0 -4.99691,-6.78199 -6.1867,-8.804631 -1.1898,-2.02262 -6.72282,-14.93208 -6.00894,-15.76493 0.71388,-0.83284 1.64165,-0.19268 2.43965,0.29766 0.6411,0.39395 4.16412,3.56956 4.64002,3.80752 0.47593,0.23795 4.9966,4.28294 4.9966,4.28294 l 0.14882,-3.86695 -0.98133,-1.01131 c 0,0 1.12827,-2.18389 1.17823,-4.12773 0.0337,-1.31227 -0.24831,-5.03245 -0.92568,-6.92206 -0.47591,-1.66569 -3.85148,-7.80804 -5.42795,-9.50347 -1.03747,-1.11583 -6.7499,-10.5345 -7.82071,-12.79509 -1.07081,-2.2606 -1.07366,-6.03749 -0.59775,-7.10829 0.66593,-1.4508 2.6944,-0.79088 4.76827,-0.15581 2.94674,0.90237 8.29926,4.68404 9.77747,5.63319 5.65148,3.62883 27.24655,20.82149 30.10204,23.32003 2.85547,2.49855 13.4076,13.04209 14.81254,13.65239 0.2083,0.0905 0.2897,-0.66856 0.28112,-1.6893 z m -29.69742,98.161411 c -0.4627,0 -1.58801,-0.914 -2.2071,-1.47428 -0.993,-0.89868 -4.56917,-4.94293 -6.69985,-7.62279 -1.92674,-2.42342 -5.58335,-8.45519 -6.04097,-9.3462 -0.42668,-0.83082 -1.25145,-3.1104 -0.48371,-3.46866 1.24932,-0.30146 2.79982,1.44859 4.31739,2.89232 3.0113,3.18422 6.29079,8.25976 7.70495,10.28737 1.58692,2.12462 2.55932,3.85701 3.62102,6.64116 0.17721,0.57235 0.59959,2.07644 -0.21173,2.09108 z m -13.86685,58.40837 c -0.003,0.37841 -0.068,0.71307 -0.22841,0.95963 -0.30118,0.20971 -1.13625,-0.34797 -2.0376,-1.0449 -2.49113,-2.32899 -5.4956,-5.53144 -6.20427,-8.34833 -0.0474,-0.2701 -0.11174,-0.80896 0.1974,-1.06298 2.92322,-0.0668 6.48639,4.2806 7.57473,6.49573 0.29708,0.78234 0.70455,2.03374 0.69815,3.00085 z M 31.901232,82.298309 c 0.003,0.52053 -0.0165,2.61215 -0.53692,2.7683 -0.59489,0.17847 -0.95162,-0.17855 -1.18959,-0.41651 -0.23795,-0.23796 -2.02265,-2.61738 -2.49856,-3.15278 -0.47591,-0.53541 -2.8555,-3.77738 -3.9858,-5.44308 -1.1303,-1.6657 -2.20125,-5.20551 -2.32027,-6.57376 -0.11903,-1.36826 0.23864,-1.48712 0.83354,-1.6061 0.59489,-0.11903 1.00129,0.085 1.88567,0.5457 1.01492,0.5288 2.57655,1.92233 3.67626,3.23185 1.00237,1.19363 2.54488,3.77526 3.09387,5.08599 0.52508,1.25365 1.01101,4.07535 1.04076,5.4436 0,0 4.5e-4,0.0424 5.2e-4,0.11679 z"
       sodipodi:nodetypes="cccccccccsssscccsscsssscccscsccsscscsscscssssccsscsccsssssscssssssssssscscsssscsssscccsscccsssssscsccsssssssssscssssssccsscsscccccccccccssccscsscscscsssssssssssscccccccccccsssscccsccscsccccccscscccccccccccccssssccsscccc" /></g></svg>
